<svg xmlns="http://www.w3.org/2000/svg" width="24" height="24" viewBox="0 0 24 24">
    <g fill="none" fill-rule="evenodd">
        <path fill="#FFF" d="M0 0h24v24H0z"/>
        <path fill="#D9002D" d="M0 22.154h24V24H0zM0 18.462h24v1.846H0zM0 14.769h24v1.846H0zM0 11.077h24v1.846H0zM0 7.385h24v1.846H0zM0 3.692h24v1.846H0zM0 0h24v1.846H0z"/>
        <path fill="#003180" d="M0 0h13v12.923H0z"/>
        <g fill="#FFF">
            <path d="M2 2.5l-.588.309.112-.654-.475-.464.657-.096L2 1l.294.595.657.096-.475.464.112.654zM5 2.5l-.588.309.112-.654-.475-.464.657-.096L5 1l.294.595.657.096-.475.464.112.654zM8 2.5l-.588.309.112-.654-.475-.464.657-.096L8 1l.294.595.657.096-.475.464.112.654zM11 2.5l-.588.309.112-.654-.475-.464.657-.096L11 1l.294.595.657.096-.475.464.112.654z"/>
        </g>
        <g fill="#FFF">
            <path d="M2 7l-.588.309.112-.654-.475-.464.657-.096L2 5.5l.294.595.657.096-.475.464.112.654zM5 7l-.588.309.112-.654-.475-.464.657-.096L5 5.5l.294.595.657.096-.475.464.112.654zM8 7l-.588.309.112-.654-.475-.464.657-.096L8 5.5l.294.595.657.096-.475.464.112.654zM11 7l-.588.309.112-.654-.475-.464.657-.096L11 5.5l.294.595.657.096-.475.464.112.654z"/>
        </g>
        <g fill="#FFF">
            <path d="M2 11.5l-.588.309.112-.654-.475-.464.657-.096L2 10l.294.595.657.096-.475.464.112.654zM5 11.5l-.588.309.112-.654-.475-.464.657-.096L5 10l.294.595.657.096-.475.464.112.654zM8 11.5l-.588.309.112-.654-.475-.464.657-.096L8 10l.294.595.657.096-.475.464.112.654zM11 11.5l-.588.309.112-.654-.475-.464.657-.096L11 10l.294.595.657.096-.475.464.112.654z"/>
        </g>
        <g fill="#FFF">
            <path d="M9.5 4.75l-.588.309.112-.654-.475-.464.657-.096.294-.595.294.595.657.096-.475.464.112.654zM6.5 4.75l-.588.309.112-.654-.475-.464.657-.096.294-.595.294.595.657.096-.475.464.112.654zM3.5 4.75l-.588.309.112-.654-.475-.464.657-.096.294-.595.294.595.657.096-.475.464.112.654z"/>
        </g>
        <g fill="#FFF">
            <path d="M9.5 9.25l-.588.309.112-.654-.475-.464.657-.096.294-.595.294.595.657.096-.475.464.112.654zM6.5 9.25l-.588.309.112-.654-.475-.464.657-.096.294-.595.294.595.657.096-.475.464.112.654zM3.5 9.25l-.588.309.112-.654-.475-.464.657-.096.294-.595.294.595.657.096-.475.464.112.654z"/>
        </g>
    </g>
</svg>
