<svg xmlns="http://www.w3.org/2000/svg" width="24" height="24" viewBox="0 0 24 24">
    <g fill="none" fill-rule="evenodd">
        <path fill="#028E3D" d="M0 0h24v24H0z"/>
        <path fill="#F1BE03" d="M1 12.09L12.033 5l11.04 7.09-11.04 6.925z"/>
        <circle cx="11.905" cy="12" r="4.5" fill="#231469"/>
        <path fill="#FFF" fill-rule="nonzero" d="M7.935 9.882c1.52-.124 3.003.004 4.406.38 1.459.392 2.808 1.124 4.046 2.193-.056.39-.073.544-.196.91-1.244-1.162-2.583-1.934-4.057-2.33-1.44-.386-2.961-.49-4.542-.312.079-.293.199-.579.343-.841z"/>
        <path fill="#FFF" d="M8.25 11.375l-.147.077.028-.163-.119-.116.165-.024L8.25 11l.073.149.165.024-.12.116.029.163zM10.25 12.375l-.147.077.028-.163-.119-.116.165-.024.073-.149.073.149.165.024-.12.116.029.163zM8.5 13.375l-.147.077.028-.163-.119-.116.165-.024L8.5 13l.073.149.165.024-.12.116.029.163zM13.687 14.785l-.147.077.028-.163-.119-.116.164-.024.074-.15.073.15.165.024-.12.116.029.163zM14.187 15.535l-.147.077.028-.163-.119-.116.164-.024.074-.15.073.15.165.024-.12.116.029.163zM14.187 14.875l-.147.077.028-.163-.119-.116.164-.024.074-.149.073.149.165.024-.12.116.029.163zM15.079 13.654l-.147.078.028-.164-.119-.116.164-.024.074-.149.073.15.165.023-.12.116.029.164zM13 11.875l-.147.077.028-.163-.119-.116.165-.024L13 11.5l.073.149.165.024-.12.116.029.163zM13.25 10.363l-.147.077.028-.164-.119-.116.165-.023.073-.15.073.15.165.023-.12.116.029.164zM14.829 14.785l-.147.077.028-.163-.119-.116.164-.024.074-.15.073.15.165.024-.12.116.029.163zM13.187 15.285l-.147.077.028-.163-.119-.116.164-.024.074-.15.073.15.165.024-.12.116.029.163zM10 14.535l-.147.077.028-.163-.119-.116.165-.024.073-.15.073.15.165.024-.12.116.029.163zM9.5 13.785l-.147.077.028-.163-.119-.116.165-.024.073-.15.073.15.165.024-.12.116.029.163zM11.25 13.375l-.147.077.028-.163-.119-.116.165-.024.073-.149.073.149.165.024-.12.116.029.163zM12 12.875l-.147.077.028-.163-.119-.116.165-.024L12 12.5l.073.149.165.024-.12.116.029.163zM12.5 13.375l-.147.077.028-.163-.119-.116.165-.024L12.5 13l.073.149.165.024-.12.116.029.163zM12 14.285l-.147.077.028-.163-.119-.116.165-.024.073-.15.073.15.165.024-.12.116.029.163z"/>
    </g>
</svg>
